<svg width="840" height="120" viewBox="0 0 840 120" fill="none" xmlns="http://www.w3.org/2000/svg">

  <!-- Stage 1 -->
  <rect x="0" y="8" width="185" height="104" rx="10" fill="#ffffff" stroke="#e4e4e7" stroke-width="1"/>
  <rect x="0" y="8" width="185" height="3" rx="1.5" fill="#2563eb"/>
  <text x="16" y="40" fill="#09090b" font-family="-apple-system, BlinkMacSystemFont, 'Segoe UI', system-ui, sans-serif" font-size="13" font-weight="600">QR Provisioning</text>
  <text x="16" y="60" fill="#a1a1aa" font-family="-apple-system, BlinkMacSystemFont, 'Segoe UI', system-ui, sans-serif" font-size="11">Device Owner APK</text>
  <text x="16" y="76" fill="#a1a1aa" font-family="-apple-system, BlinkMacSystemFont, 'Segoe UI', system-ui, sans-serif" font-size="11">enables ADB access</text>
  <text x="16" y="100" fill="#2563eb" font-family="-apple-system, BlinkMacSystemFont, 'Segoe UI', system-ui, sans-serif" font-size="10" font-weight="500">STAGE 1</text>

  <!-- Arrow 1 -->
  <path d="M195 60 L213 60" stroke="#d4d4d8" stroke-width="1.5"/>
  <path d="M210 55 L218 60 L210 65" fill="#d4d4d8"/>

  <!-- Stage 2 -->
  <rect x="222" y="8" width="185" height="104" rx="10" fill="#ffffff" stroke="#e4e4e7" stroke-width="1"/>
  <rect x="222" y="8" width="185" height="3" rx="1.5" fill="#f97316"/>
  <text x="238" y="40" fill="#09090b" font-family="-apple-system, BlinkMacSystemFont, 'Segoe UI', system-ui, sans-serif" font-size="13" font-weight="600">ABX Overflow</text>
  <text x="238" y="60" fill="#a1a1aa" font-family="-apple-system, BlinkMacSystemFont, 'Segoe UI', system-ui, sans-serif" font-size="11">CVE-2024-34740</text>
  <text x="238" y="76" fill="#a1a1aa" font-family="-apple-system, BlinkMacSystemFont, 'Segoe UI', system-ui, sans-serif" font-size="11">UID 1000 in system_server</text>
  <text x="238" y="100" fill="#f97316" font-family="-apple-system, BlinkMacSystemFont, 'Segoe UI', system-ui, sans-serif" font-size="10" font-weight="500">STAGE 2</text>

  <!-- Arrow 2 -->
  <path d="M417 60 L435 60" stroke="#d4d4d8" stroke-width="1.5"/>
  <path d="M432 55 L440 60 L432 65" fill="#d4d4d8"/>

  <!-- Stage 3 -->
  <rect x="444" y="8" width="185" height="104" rx="10" fill="#ffffff" stroke="#e4e4e7" stroke-width="1"/>
  <rect x="444" y="8" width="185" height="3" rx="1.5" fill="#7c3aed"/>
  <text x="460" y="40" fill="#09090b" font-family="-apple-system, BlinkMacSystemFont, 'Segoe UI', system-ui, sans-serif" font-size="13" font-weight="600">Reflection</text>
  <text x="460" y="60" fill="#a1a1aa" font-family="-apple-system, BlinkMacSystemFont, 'Segoe UI', system-ui, sans-serif" font-size="11">KnoxGuardSeService</text>
  <text x="460" y="76" fill="#a1a1aa" font-family="-apple-system, BlinkMacSystemFont, 'Segoe UI', system-ui, sans-serif" font-size="11">in-process method calls</text>
  <text x="460" y="100" fill="#7c3aed" font-family="-apple-system, BlinkMacSystemFont, 'Segoe UI', system-ui, sans-serif" font-size="10" font-weight="500">STAGE 3</text>

  <!-- Arrow 3 -->
  <path d="M639 60 L657 60" stroke="#d4d4d8" stroke-width="1.5"/>
  <path d="M654 55 L662 60 L654 65" fill="#d4d4d8"/>

  <!-- Stage 4 -->
  <rect x="666" y="8" width="174" height="104" rx="10" fill="#ffffff" stroke="#e4e4e7" stroke-width="1"/>
  <rect x="666" y="8" width="174" height="3" rx="1.5" fill="#16a34a"/>
  <text x="682" y="40" fill="#09090b" font-family="-apple-system, BlinkMacSystemFont, 'Segoe UI', system-ui, sans-serif" font-size="13" font-weight="600">TrustZone</text>
  <text x="682" y="60" fill="#a1a1aa" font-family="-apple-system, BlinkMacSystemFont, 'Segoe UI', system-ui, sans-serif" font-size="11">tz_unlockScreen(0)</text>
  <text x="682" y="76" fill="#a1a1aa" font-family="-apple-system, BlinkMacSystemFont, 'Segoe UI', system-ui, sans-serif" font-size="11">Locked(3) → Active(2)</text>
  <text x="682" y="100" fill="#16a34a" font-family="-apple-system, BlinkMacSystemFont, 'Segoe UI', system-ui, sans-serif" font-size="10" font-weight="500">STAGE 4</text>
</svg>
